<svg xmlns="http://www.w3.org/2000/svg" width="1007.984" height="180" viewBox="0 0 1007.984 180">
  <g id="Group_218" data-name="Group 218" transform="translate(2731.984 3134)">
    <text id="smartplan." transform="translate(-2501 -2996)" fill="#101413" font-size="150" font-family="AllRoundGothic-Medium, All Round Gothic" font-weight="500"><tspan x="0" y="0">smartplan</tspan><tspan y="0" fill="#835adf">.</tspan></text>
    <g id="Group_217" data-name="Group 217" transform="translate(1 -945)">
      <path id="rainbow-solid-full" d="M55.623,11.135A44.324,44.324,0,0,0,11.144,55.581l.024,11.135a5.535,5.535,0,0,1-5.56,5.556,5.593,5.593,0,0,1-5.584-5.58L0,55.557A55.417,55.417,0,0,1,55.6,0a56,56,0,0,1,55.839,55.8l.024,11.135a5.535,5.535,0,0,1-5.56,5.556,5.593,5.593,0,0,1-5.584-5.58l-.024-11.135A44.787,44.787,0,0,0,55.623,11.135Zm.042,19.487a24.941,24.941,0,0,0-25.02,25l.024,11.135a5.535,5.535,0,0,1-5.56,5.556,5.593,5.593,0,0,1-5.584-5.58L19.5,55.6A36.011,36.011,0,0,1,55.641,19.487a36.386,36.386,0,0,1,36.3,36.268L91.96,66.89a5.535,5.535,0,0,1-5.56,5.556,5.593,5.593,0,0,1-5.584-5.58l-.024-11.135A25.2,25.2,0,0,0,55.665,30.622ZM50.147,55.665,50.171,66.8a5.535,5.535,0,0,1-5.56,5.556,5.593,5.593,0,0,1-5.584-5.58L39,55.641a16.627,16.627,0,0,1,16.68-16.667A16.8,16.8,0,0,1,72.435,55.713l.024,11.135A5.535,5.535,0,0,1,66.9,72.4a5.593,5.593,0,0,1-5.584-5.58l-.024-11.135a5.593,5.593,0,0,0-5.584-5.58A5.535,5.535,0,0,0,50.147,55.665Z" transform="matrix(-0.643, -0.766, 0.766, -0.643, -2661.338, -2027.762)" fill="#845adf"/>
      <path id="rainbow-solid-full-2" data-name="rainbow-solid-full" d="M55.623,11.135A44.324,44.324,0,0,0,11.144,55.581l.024,11.135a5.535,5.535,0,0,1-5.56,5.556,5.593,5.593,0,0,1-5.584-5.58L0,55.557A55.417,55.417,0,0,1,55.6,0a56,56,0,0,1,55.839,55.8l.024,11.135a5.535,5.535,0,0,1-5.56,5.556,5.593,5.593,0,0,1-5.584-5.58l-.024-11.135A44.787,44.787,0,0,0,55.623,11.135Zm.042,19.487a24.941,24.941,0,0,0-25.02,25l.024,11.135a5.535,5.535,0,0,1-5.56,5.556,5.593,5.593,0,0,1-5.584-5.58L19.5,55.6A36.011,36.011,0,0,1,55.641,19.487a36.386,36.386,0,0,1,36.3,36.268L91.96,66.89a5.535,5.535,0,0,1-5.56,5.556,5.593,5.593,0,0,1-5.584-5.58l-.024-11.135A25.2,25.2,0,0,0,55.665,30.622ZM50.147,55.665,50.171,66.8a5.535,5.535,0,0,1-5.56,5.556,5.593,5.593,0,0,1-5.584-5.58L39,55.641a16.627,16.627,0,0,1,16.68-16.667A16.8,16.8,0,0,1,72.435,55.713l.024,11.135A5.535,5.535,0,0,1,66.9,72.4a5.593,5.593,0,0,1-5.584-5.58l-.024-11.135a5.593,5.593,0,0,0-5.584-5.58A5.535,5.535,0,0,0,50.147,55.665Z" transform="matrix(0.643, 0.766, -0.766, 0.643, -2593.146, -2179.419)" fill="#845adf"/>
    </g>
  </g>
</svg>
